<mxfile host="app.diagrams.net" modified="2021-02-02T23:04:35.470Z" agent="5.0 (Windows NT 10.0; Win64; x64) AppleWebKit/537.36 (KHTML, like Gecko) Chrome/88.0.4324.104 Safari/537.36" etag="2VDHIKQxeCxR6AOHwpzz" version="14.2.9" type="github" pages="2">
  <diagram id="C5RBs43oDa-KdzZeNtuy" name="Page-1">
    <mxGraphModel dx="2195" dy="2002" grid="1" gridSize="10" guides="1" tooltips="1" connect="1" arrows="1" fold="1" page="1" pageScale="1" pageWidth="827" pageHeight="1169" math="0" shadow="0">
      <root>
        <mxCell id="WIyWlLk6GJQsqaUBKTNV-0" />
        <mxCell id="WIyWlLk6GJQsqaUBKTNV-1" parent="WIyWlLk6GJQsqaUBKTNV-0" />
        <mxCell id="eUL4h1KqJM8vN_cgJeqc-86" style="edgeStyle=none;rounded=0;orthogonalLoop=1;jettySize=auto;html=1;" parent="WIyWlLk6GJQsqaUBKTNV-1" source="FtWkzKOSKA9k_867-WRy-6" edge="1">
          <mxGeometry relative="1" as="geometry">
            <mxPoint x="-689" y="350" as="targetPoint" />
          </mxGeometry>
        </mxCell>
        <mxCell id="eUL4h1KqJM8vN_cgJeqc-87" style="edgeStyle=none;rounded=0;orthogonalLoop=1;jettySize=auto;html=1;" parent="WIyWlLk6GJQsqaUBKTNV-1" source="FtWkzKOSKA9k_867-WRy-6" edge="1">
          <mxGeometry relative="1" as="geometry">
            <mxPoint x="-564" y="350" as="targetPoint" />
          </mxGeometry>
        </mxCell>
        <mxCell id="eUL4h1KqJM8vN_cgJeqc-88" style="edgeStyle=none;rounded=0;orthogonalLoop=1;jettySize=auto;html=1;" parent="WIyWlLk6GJQsqaUBKTNV-1" source="FtWkzKOSKA9k_867-WRy-6" target="eUL4h1KqJM8vN_cgJeqc-36" edge="1">
          <mxGeometry relative="1" as="geometry" />
        </mxCell>
        <mxCell id="eUL4h1KqJM8vN_cgJeqc-89" style="edgeStyle=none;rounded=0;orthogonalLoop=1;jettySize=auto;html=1;" parent="WIyWlLk6GJQsqaUBKTNV-1" source="FtWkzKOSKA9k_867-WRy-6" edge="1">
          <mxGeometry relative="1" as="geometry">
            <mxPoint x="-469" y="280" as="targetPoint" />
          </mxGeometry>
        </mxCell>
        <mxCell id="eUL4h1KqJM8vN_cgJeqc-90" style="edgeStyle=none;rounded=0;orthogonalLoop=1;jettySize=auto;html=1;" parent="WIyWlLk6GJQsqaUBKTNV-1" source="FtWkzKOSKA9k_867-WRy-6" edge="1">
          <mxGeometry relative="1" as="geometry">
            <mxPoint x="-469" y="340" as="targetPoint" />
          </mxGeometry>
        </mxCell>
        <mxCell id="FtWkzKOSKA9k_867-WRy-6" value="&lt;div style=&quot;font-size: 17px&quot;&gt;&lt;font style=&quot;font-size: 17px&quot;&gt;&lt;b&gt;Measure&lt;/b&gt;&lt;/font&gt;&lt;/div&gt;&lt;div style=&quot;font-size: 17px&quot;&gt;&lt;font style=&quot;font-size: 17px&quot;&gt;&lt;b&gt;&lt;br&gt;&lt;/b&gt;&lt;/font&gt;&lt;/div&gt;" style="ellipse;whiteSpace=wrap;html=1;strokeWidth=3;" parent="WIyWlLk6GJQsqaUBKTNV-1" vertex="1">
          <mxGeometry x="-619" y="210" width="110" height="70" as="geometry" />
        </mxCell>
        <mxCell id="eUL4h1KqJM8vN_cgJeqc-11" style="edgeStyle=orthogonalEdgeStyle;rounded=0;orthogonalLoop=1;jettySize=auto;html=1;" parent="WIyWlLk6GJQsqaUBKTNV-1" source="FtWkzKOSKA9k_867-WRy-7" target="FtWkzKOSKA9k_867-WRy-6" edge="1">
          <mxGeometry relative="1" as="geometry" />
        </mxCell>
        <mxCell id="FtWkzKOSKA9k_867-WRy-7" value="&lt;div&gt;- Current &lt;br&gt;&lt;/div&gt;&lt;div&gt;- Voltage&lt;/div&gt;&lt;div&gt;- HVIL&lt;/div&gt;&lt;div&gt;- Temperature&lt;/div&gt;&lt;div&gt;-State Charge&lt;br&gt;&lt;/div&gt;" style="rounded=0;whiteSpace=wrap;html=1;strokeWidth=3;align=left;" parent="WIyWlLk6GJQsqaUBKTNV-1" vertex="1">
          <mxGeometry x="-779" y="210" width="110" height="80" as="geometry" />
        </mxCell>
        <mxCell id="eUL4h1KqJM8vN_cgJeqc-9" style="edgeStyle=orthogonalEdgeStyle;rounded=0;orthogonalLoop=1;jettySize=auto;html=1;" parent="WIyWlLk6GJQsqaUBKTNV-1" source="eUL4h1KqJM8vN_cgJeqc-2" target="FtWkzKOSKA9k_867-WRy-7" edge="1">
          <mxGeometry relative="1" as="geometry" />
        </mxCell>
        <mxCell id="eUL4h1KqJM8vN_cgJeqc-2" value="Input" style="text;html=1;strokeColor=none;fillColor=none;align=center;verticalAlign=middle;whiteSpace=wrap;rounded=0;" parent="WIyWlLk6GJQsqaUBKTNV-1" vertex="1">
          <mxGeometry x="-753.5" y="130" width="40" height="40" as="geometry" />
        </mxCell>
        <mxCell id="eUL4h1KqJM8vN_cgJeqc-13" value="" style="shape=link;html=1;width=44;" parent="WIyWlLk6GJQsqaUBKTNV-1" edge="1">
          <mxGeometry width="100" relative="1" as="geometry">
            <mxPoint x="-489" y="360" as="sourcePoint" />
            <mxPoint x="-374" y="360" as="targetPoint" />
          </mxGeometry>
        </mxCell>
        <mxCell id="eUL4h1KqJM8vN_cgJeqc-15" value="c" style="shape=link;html=1;width=44;" parent="WIyWlLk6GJQsqaUBKTNV-1" edge="1">
          <mxGeometry width="100" relative="1" as="geometry">
            <mxPoint x="-749" y="369.5" as="sourcePoint" />
            <mxPoint x="-669" y="369.9000000000001" as="targetPoint" />
            <Array as="points" />
          </mxGeometry>
        </mxCell>
        <mxCell id="eUL4h1KqJM8vN_cgJeqc-16" value="" style="shape=link;html=1;width=44;" parent="WIyWlLk6GJQsqaUBKTNV-1" edge="1">
          <mxGeometry width="100" relative="1" as="geometry">
            <mxPoint x="-629" y="369" as="sourcePoint" />
            <mxPoint x="-529" y="369" as="targetPoint" />
          </mxGeometry>
        </mxCell>
        <mxCell id="eUL4h1KqJM8vN_cgJeqc-17" value="" style="shape=link;html=1;width=44;" parent="WIyWlLk6GJQsqaUBKTNV-1" edge="1">
          <mxGeometry width="100" relative="1" as="geometry">
            <mxPoint x="-469" y="280" as="sourcePoint" />
            <mxPoint x="-369" y="280" as="targetPoint" />
          </mxGeometry>
        </mxCell>
        <mxCell id="eUL4h1KqJM8vN_cgJeqc-18" value="" style="shape=link;html=1;width=44;" parent="WIyWlLk6GJQsqaUBKTNV-1" edge="1">
          <mxGeometry width="100" relative="1" as="geometry">
            <mxPoint x="-479" y="190" as="sourcePoint" />
            <mxPoint x="-379" y="190" as="targetPoint" />
          </mxGeometry>
        </mxCell>
        <mxCell id="eUL4h1KqJM8vN_cgJeqc-94" style="edgeStyle=none;rounded=0;orthogonalLoop=1;jettySize=auto;html=1;" parent="WIyWlLk6GJQsqaUBKTNV-1" source="eUL4h1KqJM8vN_cgJeqc-21" edge="1">
          <mxGeometry relative="1" as="geometry">
            <mxPoint x="-579" y="450" as="targetPoint" />
          </mxGeometry>
        </mxCell>
        <mxCell id="eUL4h1KqJM8vN_cgJeqc-21" value="Voltage" style="text;html=1;align=center;verticalAlign=middle;resizable=0;points=[];autosize=1;" parent="WIyWlLk6GJQsqaUBKTNV-1" vertex="1">
          <mxGeometry x="-619" y="360" width="60" height="20" as="geometry" />
        </mxCell>
        <mxCell id="eUL4h1KqJM8vN_cgJeqc-93" style="edgeStyle=none;rounded=0;orthogonalLoop=1;jettySize=auto;html=1;" parent="WIyWlLk6GJQsqaUBKTNV-1" source="eUL4h1KqJM8vN_cgJeqc-27" edge="1">
          <mxGeometry relative="1" as="geometry">
            <mxPoint x="-689" y="450" as="targetPoint" />
          </mxGeometry>
        </mxCell>
        <mxCell id="YjFaroUvgP_Q6y58aKwO-1" style="edgeStyle=orthogonalEdgeStyle;rounded=0;orthogonalLoop=1;jettySize=auto;html=1;exitX=0.25;exitY=1;exitDx=0;exitDy=0;" parent="WIyWlLk6GJQsqaUBKTNV-1" source="eUL4h1KqJM8vN_cgJeqc-27" target="FtWkzKOSKA9k_867-WRy-6" edge="1">
          <mxGeometry relative="1" as="geometry" />
        </mxCell>
        <mxCell id="eUL4h1KqJM8vN_cgJeqc-27" value="Current" style="text;html=1;strokeColor=none;fillColor=none;align=center;verticalAlign=middle;whiteSpace=wrap;rounded=0;" parent="WIyWlLk6GJQsqaUBKTNV-1" vertex="1">
          <mxGeometry x="-729" y="360" width="40" height="20" as="geometry" />
        </mxCell>
        <mxCell id="eUL4h1KqJM8vN_cgJeqc-49" style="edgeStyle=none;rounded=0;orthogonalLoop=1;jettySize=auto;html=1;" parent="WIyWlLk6GJQsqaUBKTNV-1" source="eUL4h1KqJM8vN_cgJeqc-32" edge="1">
          <mxGeometry relative="1" as="geometry">
            <mxPoint x="-429" y="450" as="targetPoint" />
          </mxGeometry>
        </mxCell>
        <mxCell id="eUL4h1KqJM8vN_cgJeqc-32" value="HVIL" style="text;html=1;strokeColor=none;fillColor=none;align=center;verticalAlign=middle;whiteSpace=wrap;rounded=0;" parent="WIyWlLk6GJQsqaUBKTNV-1" vertex="1">
          <mxGeometry x="-449" y="350" width="40" height="20" as="geometry" />
        </mxCell>
        <mxCell id="eUL4h1KqJM8vN_cgJeqc-97" style="edgeStyle=none;rounded=0;orthogonalLoop=1;jettySize=auto;html=1;" parent="WIyWlLk6GJQsqaUBKTNV-1" source="eUL4h1KqJM8vN_cgJeqc-34" edge="1">
          <mxGeometry relative="1" as="geometry">
            <mxPoint x="-279" y="280" as="targetPoint" />
          </mxGeometry>
        </mxCell>
        <mxCell id="eUL4h1KqJM8vN_cgJeqc-34" value="Temperature" style="text;html=1;align=center;verticalAlign=middle;resizable=0;points=[];autosize=1;" parent="WIyWlLk6GJQsqaUBKTNV-1" vertex="1">
          <mxGeometry x="-444" y="270" width="90" height="20" as="geometry" />
        </mxCell>
        <mxCell id="eUL4h1KqJM8vN_cgJeqc-48" style="edgeStyle=none;rounded=0;orthogonalLoop=1;jettySize=auto;html=1;" parent="WIyWlLk6GJQsqaUBKTNV-1" source="eUL4h1KqJM8vN_cgJeqc-36" edge="1">
          <mxGeometry relative="1" as="geometry">
            <mxPoint x="-429" y="250" as="targetPoint" />
          </mxGeometry>
        </mxCell>
        <mxCell id="eUL4h1KqJM8vN_cgJeqc-96" style="edgeStyle=orthogonalEdgeStyle;rounded=0;orthogonalLoop=1;jettySize=auto;html=1;" parent="WIyWlLk6GJQsqaUBKTNV-1" source="eUL4h1KqJM8vN_cgJeqc-36" edge="1">
          <mxGeometry relative="1" as="geometry">
            <mxPoint x="-279" y="450" as="targetPoint" />
          </mxGeometry>
        </mxCell>
        <mxCell id="eUL4h1KqJM8vN_cgJeqc-36" value="State Charge" style="text;html=1;align=center;verticalAlign=middle;resizable=0;points=[];autosize=1;" parent="WIyWlLk6GJQsqaUBKTNV-1" vertex="1">
          <mxGeometry x="-474" y="180" width="90" height="20" as="geometry" />
        </mxCell>
        <mxCell id="eUL4h1KqJM8vN_cgJeqc-57" style="edgeStyle=none;rounded=0;orthogonalLoop=1;jettySize=auto;html=1;entryX=0.025;entryY=0.344;entryDx=0;entryDy=0;entryPerimeter=0;" parent="WIyWlLk6GJQsqaUBKTNV-1" source="eUL4h1KqJM8vN_cgJeqc-39" target="eUL4h1KqJM8vN_cgJeqc-56" edge="1">
          <mxGeometry relative="1" as="geometry" />
        </mxCell>
        <mxCell id="eUL4h1KqJM8vN_cgJeqc-39" value="&lt;b&gt;&lt;font style=&quot;font-size: 20px&quot;&gt;Display &lt;/font&gt;&lt;/b&gt;" style="ellipse;whiteSpace=wrap;html=1;strokeColor=#000000;strokeWidth=3;fillColor=#ffffff;" parent="WIyWlLk6GJQsqaUBKTNV-1" vertex="1">
          <mxGeometry x="-619" y="550" width="120" height="80" as="geometry" />
        </mxCell>
        <mxCell id="eUL4h1KqJM8vN_cgJeqc-54" value="" style="endArrow=classic;html=1;entryX=0.579;entryY=-0.021;entryDx=0;entryDy=0;entryPerimeter=0;" parent="WIyWlLk6GJQsqaUBKTNV-1" target="eUL4h1KqJM8vN_cgJeqc-39" edge="1">
          <mxGeometry width="50" height="50" relative="1" as="geometry">
            <mxPoint x="-529" y="450" as="sourcePoint" />
            <mxPoint x="-489" y="460" as="targetPoint" />
          </mxGeometry>
        </mxCell>
        <mxCell id="eUL4h1KqJM8vN_cgJeqc-56" value="&lt;font style=&quot;font-size: 15px&quot;&gt;&lt;b&gt;Touch screen &lt;/b&gt;&lt;/font&gt;" style="whiteSpace=wrap;html=1;aspect=fixed;strokeColor=#000000;strokeWidth=3;fillColor=#ffffff;" parent="WIyWlLk6GJQsqaUBKTNV-1" vertex="1">
          <mxGeometry x="-329" y="560" width="80" height="80" as="geometry" />
        </mxCell>
        <mxCell id="eUL4h1KqJM8vN_cgJeqc-92" value="" style="endArrow=none;html=1;" parent="WIyWlLk6GJQsqaUBKTNV-1" edge="1">
          <mxGeometry width="50" height="50" relative="1" as="geometry">
            <mxPoint x="-759" y="450" as="sourcePoint" />
            <mxPoint x="-229" y="450" as="targetPoint" />
          </mxGeometry>
        </mxCell>
        <mxCell id="eUL4h1KqJM8vN_cgJeqc-106" style="edgeStyle=none;rounded=0;orthogonalLoop=1;jettySize=auto;html=1;" parent="WIyWlLk6GJQsqaUBKTNV-1" source="eUL4h1KqJM8vN_cgJeqc-109" edge="1">
          <mxGeometry relative="1" as="geometry">
            <mxPoint x="-743.5" y="860" as="targetPoint" />
          </mxGeometry>
        </mxCell>
        <mxCell id="eUL4h1KqJM8vN_cgJeqc-107" style="edgeStyle=none;rounded=0;orthogonalLoop=1;jettySize=auto;html=1;" parent="WIyWlLk6GJQsqaUBKTNV-1" source="eUL4h1KqJM8vN_cgJeqc-109" edge="1">
          <mxGeometry relative="1" as="geometry">
            <mxPoint x="-583.5" y="860" as="targetPoint" />
          </mxGeometry>
        </mxCell>
        <mxCell id="eUL4h1KqJM8vN_cgJeqc-109" value="Battery On/Off Screen" style="ellipse;whiteSpace=wrap;html=1;strokeWidth=3;" parent="WIyWlLk6GJQsqaUBKTNV-1" vertex="1">
          <mxGeometry x="-638.5" y="720" width="110" height="70" as="geometry" />
        </mxCell>
        <mxCell id="eUL4h1KqJM8vN_cgJeqc-110" style="edgeStyle=orthogonalEdgeStyle;rounded=0;orthogonalLoop=1;jettySize=auto;html=1;" parent="WIyWlLk6GJQsqaUBKTNV-1" source="eUL4h1KqJM8vN_cgJeqc-111" target="eUL4h1KqJM8vN_cgJeqc-109" edge="1">
          <mxGeometry relative="1" as="geometry" />
        </mxCell>
        <mxCell id="eUL4h1KqJM8vN_cgJeqc-111" value="&lt;div&gt;- Switch ON&lt;/div&gt;&lt;div&gt;- Switch OFF&lt;br&gt;&lt;/div&gt;&lt;div&gt;&lt;br&gt;&lt;/div&gt;&lt;div&gt;Based on contactor &lt;br&gt;&lt;/div&gt;" style="rounded=0;whiteSpace=wrap;html=1;strokeWidth=3;align=left;" parent="WIyWlLk6GJQsqaUBKTNV-1" vertex="1">
          <mxGeometry x="-799.5" y="720" width="110" height="80" as="geometry" />
        </mxCell>
        <mxCell id="eUL4h1KqJM8vN_cgJeqc-112" style="edgeStyle=orthogonalEdgeStyle;rounded=0;orthogonalLoop=1;jettySize=auto;html=1;" parent="WIyWlLk6GJQsqaUBKTNV-1" target="eUL4h1KqJM8vN_cgJeqc-111" edge="1">
          <mxGeometry relative="1" as="geometry">
            <mxPoint x="-778.5" y="660" as="sourcePoint" />
          </mxGeometry>
        </mxCell>
        <mxCell id="eUL4h1KqJM8vN_cgJeqc-114" value="" style="shape=link;html=1;width=44;" parent="WIyWlLk6GJQsqaUBKTNV-1" edge="1">
          <mxGeometry width="100" relative="1" as="geometry">
            <mxPoint x="-768.5" y="879.5" as="sourcePoint" />
            <mxPoint x="-688.5" y="879.9000000000001" as="targetPoint" />
            <Array as="points" />
          </mxGeometry>
        </mxCell>
        <mxCell id="eUL4h1KqJM8vN_cgJeqc-115" value="" style="shape=link;html=1;width=44;" parent="WIyWlLk6GJQsqaUBKTNV-1" edge="1">
          <mxGeometry width="100" relative="1" as="geometry">
            <mxPoint x="-648.5" y="879" as="sourcePoint" />
            <mxPoint x="-548.5" y="879" as="targetPoint" />
          </mxGeometry>
        </mxCell>
        <mxCell id="eUL4h1KqJM8vN_cgJeqc-116" style="edgeStyle=none;rounded=0;orthogonalLoop=1;jettySize=auto;html=1;entryX=0.5;entryY=0;entryDx=0;entryDy=0;" parent="WIyWlLk6GJQsqaUBKTNV-1" source="eUL4h1KqJM8vN_cgJeqc-117" edge="1">
          <mxGeometry relative="1" as="geometry">
            <mxPoint x="-593.5" y="1030" as="targetPoint" />
          </mxGeometry>
        </mxCell>
        <mxCell id="eUL4h1KqJM8vN_cgJeqc-117" value="When off - Open Flag " style="text;html=1;align=center;verticalAlign=middle;resizable=0;points=[];autosize=1;" parent="WIyWlLk6GJQsqaUBKTNV-1" vertex="1">
          <mxGeometry x="-542" y="930" width="130" height="20" as="geometry" />
        </mxCell>
        <mxCell id="eUL4h1KqJM8vN_cgJeqc-118" style="edgeStyle=none;rounded=0;orthogonalLoop=1;jettySize=auto;html=1;entryX=0.19;entryY=0.042;entryDx=0;entryDy=0;entryPerimeter=0;" parent="WIyWlLk6GJQsqaUBKTNV-1" source="eUL4h1KqJM8vN_cgJeqc-119" edge="1">
          <mxGeometry relative="1" as="geometry">
            <mxPoint x="-630.7" y="1033.3600000000001" as="targetPoint" />
          </mxGeometry>
        </mxCell>
        <mxCell id="eUL4h1KqJM8vN_cgJeqc-119" value="When On -Close Flag" style="text;html=1;strokeColor=none;fillColor=none;align=center;verticalAlign=middle;whiteSpace=wrap;rounded=0;" parent="WIyWlLk6GJQsqaUBKTNV-1" vertex="1">
          <mxGeometry x="-753.5" y="870" width="85" height="20" as="geometry" />
        </mxCell>
        <mxCell id="eUL4h1KqJM8vN_cgJeqc-122" style="edgeStyle=none;rounded=0;orthogonalLoop=1;jettySize=auto;html=1;entryX=0;entryY=0.5;entryDx=0;entryDy=0;" parent="WIyWlLk6GJQsqaUBKTNV-1" edge="1">
          <mxGeometry relative="1" as="geometry">
            <mxPoint x="-533.5" y="1070" as="sourcePoint" />
            <mxPoint x="-429.5" y="1070" as="targetPoint" />
          </mxGeometry>
        </mxCell>
        <mxCell id="eUL4h1KqJM8vN_cgJeqc-123" value="&lt;font style=&quot;font-size: 13px&quot;&gt;&lt;b&gt;Display &lt;/b&gt;&lt;/font&gt;" style="ellipse;whiteSpace=wrap;html=1;strokeColor=#000000;strokeWidth=3;fillColor=#ffffff;" parent="WIyWlLk6GJQsqaUBKTNV-1" vertex="1">
          <mxGeometry x="-654.5" y="460" width="120" height="80" as="geometry" />
        </mxCell>
        <mxCell id="eUL4h1KqJM8vN_cgJeqc-124" value="&lt;b&gt;&lt;font style=&quot;font-size: 15px&quot;&gt;Touch Screen&lt;/font&gt;&lt;/b&gt;" style="whiteSpace=wrap;html=1;aspect=fixed;strokeColor=#000000;strokeWidth=3;fillColor=#ffffff;" parent="WIyWlLk6GJQsqaUBKTNV-1" vertex="1">
          <mxGeometry x="-430.5" y="460" width="80" height="80" as="geometry" />
        </mxCell>
        <mxCell id="eUL4h1KqJM8vN_cgJeqc-125" value="Input " style="text;html=1;strokeColor=none;fillColor=none;align=center;verticalAlign=middle;whiteSpace=wrap;rounded=0;" parent="WIyWlLk6GJQsqaUBKTNV-1" vertex="1">
          <mxGeometry x="-798.5" y="610" width="40" height="20" as="geometry" />
        </mxCell>
        <mxCell id="eUL4h1KqJM8vN_cgJeqc-128" style="edgeStyle=none;rounded=0;orthogonalLoop=1;jettySize=auto;html=1;entryX=0.617;entryY=0;entryDx=0;entryDy=0;entryPerimeter=0;" parent="WIyWlLk6GJQsqaUBKTNV-1" source="eUL4h1KqJM8vN_cgJeqc-129" target="eUL4h1KqJM8vN_cgJeqc-140" edge="1">
          <mxGeometry relative="1" as="geometry">
            <mxPoint x="-93" y="830" as="targetPoint" />
          </mxGeometry>
        </mxCell>
        <mxCell id="eUL4h1KqJM8vN_cgJeqc-129" value="Touch input " style="ellipse;whiteSpace=wrap;html=1;strokeWidth=3;" parent="WIyWlLk6GJQsqaUBKTNV-1" vertex="1">
          <mxGeometry x="-148" y="690" width="110" height="70" as="geometry" />
        </mxCell>
        <mxCell id="eUL4h1KqJM8vN_cgJeqc-130" style="edgeStyle=orthogonalEdgeStyle;rounded=0;orthogonalLoop=1;jettySize=auto;html=1;" parent="WIyWlLk6GJQsqaUBKTNV-1" source="eUL4h1KqJM8vN_cgJeqc-131" target="eUL4h1KqJM8vN_cgJeqc-129" edge="1">
          <mxGeometry relative="1" as="geometry" />
        </mxCell>
        <mxCell id="eUL4h1KqJM8vN_cgJeqc-131" value="&lt;div&gt;-Battery ON/OFF Screen&lt;/div&gt;&lt;div&gt;- Measurement Screen &lt;br&gt;&lt;/div&gt;&lt;div&gt;&amp;nbsp;- Alarm Screen&lt;br&gt;&lt;/div&gt;" style="rounded=0;whiteSpace=wrap;html=1;strokeWidth=3;align=left;" parent="WIyWlLk6GJQsqaUBKTNV-1" vertex="1">
          <mxGeometry x="-309" y="690" width="110" height="80" as="geometry" />
        </mxCell>
        <mxCell id="eUL4h1KqJM8vN_cgJeqc-132" style="edgeStyle=orthogonalEdgeStyle;rounded=0;orthogonalLoop=1;jettySize=auto;html=1;" parent="WIyWlLk6GJQsqaUBKTNV-1" target="eUL4h1KqJM8vN_cgJeqc-131" edge="1">
          <mxGeometry relative="1" as="geometry">
            <mxPoint x="-288" y="630" as="sourcePoint" />
          </mxGeometry>
        </mxCell>
        <mxCell id="eUL4h1KqJM8vN_cgJeqc-139" style="edgeStyle=none;rounded=0;orthogonalLoop=1;jettySize=auto;html=1;entryX=0;entryY=0.5;entryDx=0;entryDy=0;" parent="WIyWlLk6GJQsqaUBKTNV-1" source="eUL4h1KqJM8vN_cgJeqc-140" target="eUL4h1KqJM8vN_cgJeqc-141" edge="1">
          <mxGeometry relative="1" as="geometry" />
        </mxCell>
        <mxCell id="eUL4h1KqJM8vN_cgJeqc-140" value="&lt;font style=&quot;font-size: 13px&quot;&gt;&lt;b&gt;Display &lt;/b&gt;&lt;/font&gt;" style="ellipse;whiteSpace=wrap;html=1;strokeColor=#000000;strokeWidth=3;fillColor=#ffffff;" parent="WIyWlLk6GJQsqaUBKTNV-1" vertex="1">
          <mxGeometry x="-209" y="840" width="120" height="80" as="geometry" />
        </mxCell>
        <mxCell id="eUL4h1KqJM8vN_cgJeqc-141" value="&lt;b&gt;&lt;font style=&quot;font-size: 15px&quot;&gt;Touch Screen&lt;/font&gt;&lt;/b&gt;" style="whiteSpace=wrap;html=1;aspect=fixed;strokeColor=#000000;strokeWidth=3;fillColor=#ffffff;" parent="WIyWlLk6GJQsqaUBKTNV-1" vertex="1">
          <mxGeometry x="15" y="840" width="80" height="80" as="geometry" />
        </mxCell>
        <mxCell id="eUL4h1KqJM8vN_cgJeqc-142" value="Input " style="text;html=1;strokeColor=none;fillColor=none;align=center;verticalAlign=middle;whiteSpace=wrap;rounded=0;" parent="WIyWlLk6GJQsqaUBKTNV-1" vertex="1">
          <mxGeometry x="-308" y="580" width="40" height="20" as="geometry" />
        </mxCell>
        <mxCell id="YjFaroUvgP_Q6y58aKwO-22" style="edgeStyle=orthogonalEdgeStyle;rounded=0;orthogonalLoop=1;jettySize=auto;html=1;entryX=0;entryY=0.5;entryDx=0;entryDy=0;" parent="WIyWlLk6GJQsqaUBKTNV-1" source="YjFaroUvgP_Q6y58aKwO-0" target="YjFaroUvgP_Q6y58aKwO-21" edge="1">
          <mxGeometry relative="1" as="geometry" />
        </mxCell>
        <mxCell id="YjFaroUvgP_Q6y58aKwO-0" value="&lt;b&gt;&lt;font style=&quot;font-size: 18px&quot;&gt;Startup&lt;/font&gt;&lt;/b&gt;" style="rounded=0;whiteSpace=wrap;html=1;" parent="WIyWlLk6GJQsqaUBKTNV-1" vertex="1">
          <mxGeometry x="-799.5" y="-1100" width="120" height="60" as="geometry" />
        </mxCell>
        <mxCell id="YjFaroUvgP_Q6y58aKwO-18" value="" style="shape=link;html=1;width=44;" parent="WIyWlLk6GJQsqaUBKTNV-1" edge="1">
          <mxGeometry width="100" relative="1" as="geometry">
            <mxPoint x="-420" y="-1060.5" as="sourcePoint" />
            <mxPoint x="-320" y="-1060.5" as="targetPoint" />
          </mxGeometry>
        </mxCell>
        <mxCell id="YjFaroUvgP_Q6y58aKwO-23" style="edgeStyle=none;rounded=0;orthogonalLoop=1;jettySize=auto;html=1;" parent="WIyWlLk6GJQsqaUBKTNV-1" source="YjFaroUvgP_Q6y58aKwO-21" edge="1">
          <mxGeometry relative="1" as="geometry">
            <mxPoint x="-420" y="-1060" as="targetPoint" />
          </mxGeometry>
        </mxCell>
        <mxCell id="YjFaroUvgP_Q6y58aKwO-21" value="&lt;b&gt;&lt;font style=&quot;font-size: 16px&quot;&gt;Measure &lt;/font&gt;&lt;/b&gt;" style="ellipse;whiteSpace=wrap;html=1;" parent="WIyWlLk6GJQsqaUBKTNV-1" vertex="1">
          <mxGeometry x="-590.5" y="-1100" width="120" height="80" as="geometry" />
        </mxCell>
        <mxCell id="YjFaroUvgP_Q6y58aKwO-26" value="" style="edgeStyle=none;rounded=0;orthogonalLoop=1;jettySize=auto;html=1;" parent="WIyWlLk6GJQsqaUBKTNV-1" source="YjFaroUvgP_Q6y58aKwO-24" target="YjFaroUvgP_Q6y58aKwO-25" edge="1">
          <mxGeometry relative="1" as="geometry" />
        </mxCell>
        <mxCell id="YjFaroUvgP_Q6y58aKwO-24" value="&lt;font style=&quot;font-size: 12px&quot;&gt;&lt;font style=&quot;font-size: 12px&quot;&gt;Current &lt;/font&gt;&lt;/font&gt;" style="text;html=1;align=center;verticalAlign=middle;resizable=0;points=[];autosize=1;" parent="WIyWlLk6GJQsqaUBKTNV-1" vertex="1">
          <mxGeometry x="-404" y="-1070" width="60" height="20" as="geometry" />
        </mxCell>
        <mxCell id="YjFaroUvgP_Q6y58aKwO-28" style="edgeStyle=orthogonalEdgeStyle;rounded=0;orthogonalLoop=1;jettySize=auto;html=1;entryX=0.383;entryY=-0.033;entryDx=0;entryDy=0;entryPerimeter=0;" parent="WIyWlLk6GJQsqaUBKTNV-1" source="YjFaroUvgP_Q6y58aKwO-25" target="YjFaroUvgP_Q6y58aKwO-27" edge="1">
          <mxGeometry relative="1" as="geometry" />
        </mxCell>
        <mxCell id="YjFaroUvgP_Q6y58aKwO-25" value="&lt;div style=&quot;font-size: 16px&quot;&gt;&lt;b&gt;Display&lt;/b&gt;&lt;/div&gt;&lt;div&gt;&lt;br&gt;&lt;/div&gt;" style="ellipse;whiteSpace=wrap;html=1;" parent="WIyWlLk6GJQsqaUBKTNV-1" vertex="1">
          <mxGeometry x="-290" y="-1100" width="120" height="80" as="geometry" />
        </mxCell>
        <mxCell id="YjFaroUvgP_Q6y58aKwO-27" value="&lt;b&gt;&lt;font style=&quot;font-size: 16px&quot;&gt;Touch Screen&lt;/font&gt;&lt;/b&gt;" style="rounded=0;whiteSpace=wrap;html=1;" parent="WIyWlLk6GJQsqaUBKTNV-1" vertex="1">
          <mxGeometry x="-180" y="-1010" width="120" height="60" as="geometry" />
        </mxCell>
        <mxCell id="YjFaroUvgP_Q6y58aKwO-29" style="edgeStyle=orthogonalEdgeStyle;rounded=0;orthogonalLoop=1;jettySize=auto;html=1;entryX=0;entryY=0.5;entryDx=0;entryDy=0;" parent="WIyWlLk6GJQsqaUBKTNV-1" source="YjFaroUvgP_Q6y58aKwO-30" target="YjFaroUvgP_Q6y58aKwO-33" edge="1">
          <mxGeometry relative="1" as="geometry" />
        </mxCell>
        <mxCell id="YjFaroUvgP_Q6y58aKwO-30" value="&lt;font style=&quot;font-size: 16px&quot;&gt;&lt;b&gt;Startup&lt;/b&gt;&lt;/font&gt;" style="rounded=0;whiteSpace=wrap;html=1;" parent="WIyWlLk6GJQsqaUBKTNV-1" vertex="1">
          <mxGeometry x="-798.5" y="-920" width="120" height="60" as="geometry" />
        </mxCell>
        <mxCell id="YjFaroUvgP_Q6y58aKwO-31" value="" style="shape=link;html=1;width=44;" parent="WIyWlLk6GJQsqaUBKTNV-1" edge="1">
          <mxGeometry width="100" relative="1" as="geometry">
            <mxPoint x="-419" y="-880.5" as="sourcePoint" />
            <mxPoint x="-319" y="-880.5" as="targetPoint" />
          </mxGeometry>
        </mxCell>
        <mxCell id="YjFaroUvgP_Q6y58aKwO-32" style="edgeStyle=none;rounded=0;orthogonalLoop=1;jettySize=auto;html=1;" parent="WIyWlLk6GJQsqaUBKTNV-1" source="YjFaroUvgP_Q6y58aKwO-33" edge="1">
          <mxGeometry relative="1" as="geometry">
            <mxPoint x="-419" y="-880" as="targetPoint" />
          </mxGeometry>
        </mxCell>
        <mxCell id="YjFaroUvgP_Q6y58aKwO-33" value="&lt;b&gt;&lt;font style=&quot;font-size: 16px&quot;&gt;Measure &lt;/font&gt;&lt;/b&gt;" style="ellipse;whiteSpace=wrap;html=1;" parent="WIyWlLk6GJQsqaUBKTNV-1" vertex="1">
          <mxGeometry x="-589.5" y="-920" width="120" height="80" as="geometry" />
        </mxCell>
        <mxCell id="YjFaroUvgP_Q6y58aKwO-34" value="" style="edgeStyle=none;rounded=0;orthogonalLoop=1;jettySize=auto;html=1;" parent="WIyWlLk6GJQsqaUBKTNV-1" source="YjFaroUvgP_Q6y58aKwO-35" target="YjFaroUvgP_Q6y58aKwO-37" edge="1">
          <mxGeometry relative="1" as="geometry" />
        </mxCell>
        <mxCell id="YjFaroUvgP_Q6y58aKwO-35" value="&lt;font style=&quot;font-size: 12px&quot;&gt;Voltage &lt;/font&gt;" style="text;html=1;align=center;verticalAlign=middle;resizable=0;points=[];autosize=1;" parent="WIyWlLk6GJQsqaUBKTNV-1" vertex="1">
          <mxGeometry x="-404" y="-890" width="60" height="20" as="geometry" />
        </mxCell>
        <mxCell id="YjFaroUvgP_Q6y58aKwO-36" style="edgeStyle=orthogonalEdgeStyle;rounded=0;orthogonalLoop=1;jettySize=auto;html=1;entryX=0.383;entryY=-0.033;entryDx=0;entryDy=0;entryPerimeter=0;" parent="WIyWlLk6GJQsqaUBKTNV-1" source="YjFaroUvgP_Q6y58aKwO-37" target="YjFaroUvgP_Q6y58aKwO-38" edge="1">
          <mxGeometry relative="1" as="geometry" />
        </mxCell>
        <mxCell id="YjFaroUvgP_Q6y58aKwO-37" value="&lt;div style=&quot;font-size: 16px&quot;&gt;&lt;b&gt;Display&lt;/b&gt;&lt;/div&gt;&lt;div&gt;&lt;br&gt;&lt;/div&gt;" style="ellipse;whiteSpace=wrap;html=1;" parent="WIyWlLk6GJQsqaUBKTNV-1" vertex="1">
          <mxGeometry x="-289" y="-920" width="120" height="80" as="geometry" />
        </mxCell>
        <mxCell id="YjFaroUvgP_Q6y58aKwO-38" value="&lt;b&gt;&lt;font style=&quot;font-size: 16px&quot;&gt;Touch Screen&lt;/font&gt;&lt;/b&gt;" style="rounded=0;whiteSpace=wrap;html=1;" parent="WIyWlLk6GJQsqaUBKTNV-1" vertex="1">
          <mxGeometry x="-179" y="-830" width="120" height="60" as="geometry" />
        </mxCell>
        <mxCell id="YjFaroUvgP_Q6y58aKwO-39" style="edgeStyle=orthogonalEdgeStyle;rounded=0;orthogonalLoop=1;jettySize=auto;html=1;entryX=0;entryY=0.5;entryDx=0;entryDy=0;" parent="WIyWlLk6GJQsqaUBKTNV-1" source="YjFaroUvgP_Q6y58aKwO-40" target="YjFaroUvgP_Q6y58aKwO-43" edge="1">
          <mxGeometry relative="1" as="geometry" />
        </mxCell>
        <mxCell id="YjFaroUvgP_Q6y58aKwO-40" value="&lt;b&gt;&lt;font style=&quot;font-size: 18px&quot;&gt;Pin 22&lt;/font&gt;&lt;/b&gt;" style="rounded=0;whiteSpace=wrap;html=1;" parent="WIyWlLk6GJQsqaUBKTNV-1" vertex="1">
          <mxGeometry x="-799.5" y="-760" width="120" height="60" as="geometry" />
        </mxCell>
        <mxCell id="YjFaroUvgP_Q6y58aKwO-41" value="" style="shape=link;html=1;width=44;" parent="WIyWlLk6GJQsqaUBKTNV-1" edge="1">
          <mxGeometry width="100" relative="1" as="geometry">
            <mxPoint x="-420" y="-720.5" as="sourcePoint" />
            <mxPoint x="-320" y="-720.5" as="targetPoint" />
          </mxGeometry>
        </mxCell>
        <mxCell id="YjFaroUvgP_Q6y58aKwO-42" style="edgeStyle=none;rounded=0;orthogonalLoop=1;jettySize=auto;html=1;" parent="WIyWlLk6GJQsqaUBKTNV-1" source="YjFaroUvgP_Q6y58aKwO-43" edge="1">
          <mxGeometry relative="1" as="geometry">
            <mxPoint x="-420" y="-720" as="targetPoint" />
          </mxGeometry>
        </mxCell>
        <mxCell id="YjFaroUvgP_Q6y58aKwO-43" value="&lt;b&gt;&lt;font style=&quot;font-size: 16px&quot;&gt;Measure &lt;/font&gt;&lt;/b&gt;" style="ellipse;whiteSpace=wrap;html=1;" parent="WIyWlLk6GJQsqaUBKTNV-1" vertex="1">
          <mxGeometry x="-590.5" y="-760" width="120" height="80" as="geometry" />
        </mxCell>
        <mxCell id="YjFaroUvgP_Q6y58aKwO-44" value="" style="edgeStyle=none;rounded=0;orthogonalLoop=1;jettySize=auto;html=1;" parent="WIyWlLk6GJQsqaUBKTNV-1" source="YjFaroUvgP_Q6y58aKwO-45" target="YjFaroUvgP_Q6y58aKwO-47" edge="1">
          <mxGeometry relative="1" as="geometry" />
        </mxCell>
        <mxCell id="YjFaroUvgP_Q6y58aKwO-45" value="&lt;font style=&quot;font-size: 12px&quot;&gt;HVL&lt;/font&gt;" style="text;html=1;align=center;verticalAlign=middle;resizable=0;points=[];autosize=1;" parent="WIyWlLk6GJQsqaUBKTNV-1" vertex="1">
          <mxGeometry x="-394" y="-730" width="40" height="20" as="geometry" />
        </mxCell>
        <mxCell id="YjFaroUvgP_Q6y58aKwO-46" style="edgeStyle=orthogonalEdgeStyle;rounded=0;orthogonalLoop=1;jettySize=auto;html=1;entryX=0.383;entryY=-0.033;entryDx=0;entryDy=0;entryPerimeter=0;" parent="WIyWlLk6GJQsqaUBKTNV-1" source="YjFaroUvgP_Q6y58aKwO-47" target="YjFaroUvgP_Q6y58aKwO-48" edge="1">
          <mxGeometry relative="1" as="geometry" />
        </mxCell>
        <mxCell id="YjFaroUvgP_Q6y58aKwO-47" value="&lt;div style=&quot;font-size: 16px&quot;&gt;&lt;b&gt;Display&lt;/b&gt;&lt;/div&gt;&lt;div&gt;&lt;br&gt;&lt;/div&gt;" style="ellipse;whiteSpace=wrap;html=1;" parent="WIyWlLk6GJQsqaUBKTNV-1" vertex="1">
          <mxGeometry x="-290" y="-760" width="120" height="80" as="geometry" />
        </mxCell>
        <mxCell id="YjFaroUvgP_Q6y58aKwO-48" value="&lt;b&gt;&lt;font style=&quot;font-size: 16px&quot;&gt;Touch Screen&lt;/font&gt;&lt;/b&gt;" style="rounded=0;whiteSpace=wrap;html=1;" parent="WIyWlLk6GJQsqaUBKTNV-1" vertex="1">
          <mxGeometry x="-180" y="-670" width="120" height="60" as="geometry" />
        </mxCell>
        <mxCell id="YjFaroUvgP_Q6y58aKwO-49" style="edgeStyle=orthogonalEdgeStyle;rounded=0;orthogonalLoop=1;jettySize=auto;html=1;entryX=0;entryY=0.5;entryDx=0;entryDy=0;" parent="WIyWlLk6GJQsqaUBKTNV-1" source="YjFaroUvgP_Q6y58aKwO-50" target="YjFaroUvgP_Q6y58aKwO-53" edge="1">
          <mxGeometry relative="1" as="geometry" />
        </mxCell>
        <mxCell id="YjFaroUvgP_Q6y58aKwO-50" value="&lt;b&gt;&lt;font style=&quot;font-size: 18px&quot;&gt;Startup&lt;/font&gt;&lt;/b&gt;" style="rounded=0;whiteSpace=wrap;html=1;" parent="WIyWlLk6GJQsqaUBKTNV-1" vertex="1">
          <mxGeometry x="-799.5" y="-570" width="120" height="60" as="geometry" />
        </mxCell>
        <mxCell id="YjFaroUvgP_Q6y58aKwO-51" value="" style="shape=link;html=1;width=44;" parent="WIyWlLk6GJQsqaUBKTNV-1" edge="1">
          <mxGeometry width="100" relative="1" as="geometry">
            <mxPoint x="-420" y="-530.5" as="sourcePoint" />
            <mxPoint x="-320" y="-530.5" as="targetPoint" />
          </mxGeometry>
        </mxCell>
        <mxCell id="YjFaroUvgP_Q6y58aKwO-52" style="edgeStyle=none;rounded=0;orthogonalLoop=1;jettySize=auto;html=1;" parent="WIyWlLk6GJQsqaUBKTNV-1" source="YjFaroUvgP_Q6y58aKwO-53" edge="1">
          <mxGeometry relative="1" as="geometry">
            <mxPoint x="-420" y="-530" as="targetPoint" />
          </mxGeometry>
        </mxCell>
        <mxCell id="YjFaroUvgP_Q6y58aKwO-53" value="&lt;b&gt;&lt;font style=&quot;font-size: 16px&quot;&gt;Measure &lt;/font&gt;&lt;/b&gt;" style="ellipse;whiteSpace=wrap;html=1;" parent="WIyWlLk6GJQsqaUBKTNV-1" vertex="1">
          <mxGeometry x="-590.5" y="-570" width="120" height="80" as="geometry" />
        </mxCell>
        <mxCell id="YjFaroUvgP_Q6y58aKwO-54" value="" style="edgeStyle=none;rounded=0;orthogonalLoop=1;jettySize=auto;html=1;" parent="WIyWlLk6GJQsqaUBKTNV-1" source="YjFaroUvgP_Q6y58aKwO-55" target="YjFaroUvgP_Q6y58aKwO-57" edge="1">
          <mxGeometry relative="1" as="geometry" />
        </mxCell>
        <mxCell id="YjFaroUvgP_Q6y58aKwO-55" value="&lt;font style=&quot;font-size: 12px;&quot;&gt;Temperature&lt;/font&gt;" style="text;html=1;align=center;verticalAlign=middle;resizable=0;points=[];autosize=1;fontSize=12;" parent="WIyWlLk6GJQsqaUBKTNV-1" vertex="1">
          <mxGeometry x="-409" y="-540" width="80" height="20" as="geometry" />
        </mxCell>
        <mxCell id="YjFaroUvgP_Q6y58aKwO-56" style="edgeStyle=orthogonalEdgeStyle;rounded=0;orthogonalLoop=1;jettySize=auto;html=1;entryX=0.383;entryY=-0.033;entryDx=0;entryDy=0;entryPerimeter=0;" parent="WIyWlLk6GJQsqaUBKTNV-1" source="YjFaroUvgP_Q6y58aKwO-57" target="YjFaroUvgP_Q6y58aKwO-58" edge="1">
          <mxGeometry relative="1" as="geometry" />
        </mxCell>
        <mxCell id="YjFaroUvgP_Q6y58aKwO-57" value="&lt;div style=&quot;font-size: 16px&quot;&gt;&lt;b&gt;Display&lt;/b&gt;&lt;/div&gt;&lt;div&gt;&lt;br&gt;&lt;/div&gt;" style="ellipse;whiteSpace=wrap;html=1;" parent="WIyWlLk6GJQsqaUBKTNV-1" vertex="1">
          <mxGeometry x="-290" y="-570" width="120" height="80" as="geometry" />
        </mxCell>
        <mxCell id="YjFaroUvgP_Q6y58aKwO-58" value="&lt;b&gt;&lt;font style=&quot;font-size: 16px&quot;&gt;Touch Screen&lt;/font&gt;&lt;/b&gt;" style="rounded=0;whiteSpace=wrap;html=1;" parent="WIyWlLk6GJQsqaUBKTNV-1" vertex="1">
          <mxGeometry x="-180" y="-480" width="120" height="60" as="geometry" />
        </mxCell>
        <mxCell id="YjFaroUvgP_Q6y58aKwO-59" style="edgeStyle=orthogonalEdgeStyle;rounded=0;orthogonalLoop=1;jettySize=auto;html=1;entryX=0;entryY=0.5;entryDx=0;entryDy=0;" parent="WIyWlLk6GJQsqaUBKTNV-1" source="YjFaroUvgP_Q6y58aKwO-60" target="YjFaroUvgP_Q6y58aKwO-63" edge="1">
          <mxGeometry relative="1" as="geometry" />
        </mxCell>
        <mxCell id="YjFaroUvgP_Q6y58aKwO-60" value="&lt;b&gt;&lt;font style=&quot;font-size: 18px&quot;&gt;Startup&lt;/font&gt;&lt;/b&gt;" style="rounded=0;whiteSpace=wrap;html=1;" parent="WIyWlLk6GJQsqaUBKTNV-1" vertex="1">
          <mxGeometry x="-799.5" y="-400" width="120" height="60" as="geometry" />
        </mxCell>
        <mxCell id="YjFaroUvgP_Q6y58aKwO-61" value="" style="shape=link;html=1;width=44;" parent="WIyWlLk6GJQsqaUBKTNV-1" edge="1">
          <mxGeometry width="100" relative="1" as="geometry">
            <mxPoint x="-420" y="-360.5" as="sourcePoint" />
            <mxPoint x="-320" y="-360.5" as="targetPoint" />
          </mxGeometry>
        </mxCell>
        <mxCell id="YjFaroUvgP_Q6y58aKwO-62" style="edgeStyle=none;rounded=0;orthogonalLoop=1;jettySize=auto;html=1;" parent="WIyWlLk6GJQsqaUBKTNV-1" source="YjFaroUvgP_Q6y58aKwO-63" edge="1">
          <mxGeometry relative="1" as="geometry">
            <mxPoint x="-420" y="-360" as="targetPoint" />
          </mxGeometry>
        </mxCell>
        <mxCell id="YjFaroUvgP_Q6y58aKwO-63" value="&lt;b&gt;&lt;font style=&quot;font-size: 16px&quot;&gt;SOC&lt;/font&gt;&lt;/b&gt;" style="ellipse;whiteSpace=wrap;html=1;" parent="WIyWlLk6GJQsqaUBKTNV-1" vertex="1">
          <mxGeometry x="-590.5" y="-400" width="120" height="80" as="geometry" />
        </mxCell>
        <mxCell id="YjFaroUvgP_Q6y58aKwO-64" value="" style="edgeStyle=none;rounded=0;orthogonalLoop=1;jettySize=auto;html=1;" parent="WIyWlLk6GJQsqaUBKTNV-1" source="YjFaroUvgP_Q6y58aKwO-65" target="YjFaroUvgP_Q6y58aKwO-67" edge="1">
          <mxGeometry relative="1" as="geometry" />
        </mxCell>
        <mxCell id="YjFaroUvgP_Q6y58aKwO-65" value="State of Charge" style="text;html=1;align=center;verticalAlign=middle;resizable=0;points=[];autosize=1;" parent="WIyWlLk6GJQsqaUBKTNV-1" vertex="1">
          <mxGeometry x="-425" y="-370" width="100" height="20" as="geometry" />
        </mxCell>
        <mxCell id="YjFaroUvgP_Q6y58aKwO-66" style="edgeStyle=orthogonalEdgeStyle;rounded=0;orthogonalLoop=1;jettySize=auto;html=1;entryX=0.383;entryY=-0.033;entryDx=0;entryDy=0;entryPerimeter=0;" parent="WIyWlLk6GJQsqaUBKTNV-1" source="YjFaroUvgP_Q6y58aKwO-67" target="YjFaroUvgP_Q6y58aKwO-68" edge="1">
          <mxGeometry relative="1" as="geometry" />
        </mxCell>
        <mxCell id="YjFaroUvgP_Q6y58aKwO-67" value="&lt;div style=&quot;font-size: 16px&quot;&gt;&lt;b&gt;Display&lt;/b&gt;&lt;/div&gt;&lt;div&gt;&lt;br&gt;&lt;/div&gt;" style="ellipse;whiteSpace=wrap;html=1;" parent="WIyWlLk6GJQsqaUBKTNV-1" vertex="1">
          <mxGeometry x="-290" y="-400" width="120" height="80" as="geometry" />
        </mxCell>
        <mxCell id="YjFaroUvgP_Q6y58aKwO-68" value="&lt;b&gt;&lt;font style=&quot;font-size: 16px&quot;&gt;Touch Screen&lt;/font&gt;&lt;/b&gt;" style="rounded=0;whiteSpace=wrap;html=1;" parent="WIyWlLk6GJQsqaUBKTNV-1" vertex="1">
          <mxGeometry x="-180" y="-310" width="120" height="60" as="geometry" />
        </mxCell>
      </root>
    </mxGraphModel>
  </diagram>
  <diagram id="poVm3aQ5843L_IrLYcHb" name="Page-2">
    <mxGraphModel dx="868" dy="451" grid="1" gridSize="10" guides="1" tooltips="1" connect="1" arrows="1" fold="1" page="1" pageScale="1" pageWidth="850" pageHeight="1100" math="0" shadow="0">
      <root>
        <mxCell id="8owKSOA7MdNxRC6RTAyq-0" />
        <mxCell id="8owKSOA7MdNxRC6RTAyq-1" parent="8owKSOA7MdNxRC6RTAyq-0" />
      </root>
    </mxGraphModel>
  </diagram>
</mxfile>
